<svg width="123" height="42" viewBox="0 0 123 42" fill="none" xmlns="http://www.w3.org/2000/svg">
<path d="M52.4662 20.1875H51.3247C50.9243 20.2054 50.5257 20.1236 50.1647 19.9495C49.808 19.7331 49.5006 19.4445 49.2621 19.1022C49.2864 18.9689 49.3017 18.8339 49.3079 18.6985C49.3123 18.5654 49.3168 18.4236 49.3168 18.2772V14.7198H46.5711V18.0525C46.6188 18.6284 46.4703 19.2033 46.1497 19.684C45.9785 19.8645 45.7688 20.004 45.5362 20.092C45.3036 20.1801 45.0541 20.2145 44.8064 20.1926H43.2391V14.7219H40.4934V20.1926H38.2844C37.9198 20.2007 37.5562 20.1508 37.2072 20.0448C36.9108 19.9432 36.6467 19.7646 36.4421 19.5273C36.5646 19.2344 36.6539 18.9287 36.7082 18.6158C36.7644 18.2904 36.7921 17.9606 36.791 17.6303C36.808 16.829 36.6102 16.0376 36.2181 15.3385C35.8416 14.6869 35.2844 14.1586 34.6138 13.8171C34.2675 13.646 33.9033 13.5137 33.5278 13.4229C33.1359 13.3299 32.7344 13.2839 32.3316 13.2856C31.7359 13.2982 31.1443 13.3873 30.5714 13.5509C29.9099 13.7271 29.2749 13.9909 28.6832 14.3353C28.3878 14.8341 28.1613 15.3705 28.0098 15.9299C27.8408 16.4893 27.7512 17.0697 27.7436 17.654C27.7412 18.1008 27.7843 18.5467 27.8722 18.9847C27.9579 19.3972 28.0817 19.8008 28.2419 20.1904H23.954V13.2796H21.2083V20.1868H20.0668C19.6697 20.2032 19.2746 20.1214 18.9165 19.9487C18.5548 19.7356 18.2436 19.4465 18.0042 19.1015C18.0285 18.9681 18.0438 18.8332 18.0501 18.6978C18.0545 18.5647 18.0589 18.4229 18.0589 18.2765V14.719H15.3132V18.0516C15.3592 18.6245 15.2107 19.1962 14.8918 19.6744C14.722 19.8571 14.5127 19.9986 14.2799 20.0883C14.0472 20.1779 13.797 20.2134 13.5485 20.1919H11.9812V14.7212H9.23258V21.6838C9.28316 22.4635 9.04324 23.2344 8.55908 23.8477C8.28715 24.1193 7.95936 24.3286 7.59845 24.4608C7.23755 24.5931 6.85219 24.6453 6.46912 24.6137H5.91465C5.57735 24.6255 5.2418 24.5602 4.93355 24.4227C4.62531 24.2853 4.35251 24.0793 4.13592 23.8204C3.66058 23.2131 3.42133 22.454 3.46243 21.6838C3.46649 21.0054 3.5216 20.3283 3.6273 19.6582C3.73278 18.9609 3.88592 18.2718 4.08565 17.5955H1.65635C1.34713 18.2124 1.11473 18.865 0.964376 19.5385C0.801753 20.2358 0.71867 20.9493 0.716715 21.6654C0.700444 22.5971 0.906221 23.5192 1.31702 24.3556C1.70154 25.1247 2.30839 25.7604 3.05878 26.1802C3.44203 26.3962 3.85397 26.5567 4.28231 26.657C4.75521 26.7698 5.23998 26.825 5.72613 26.8218H6.53935C7.92664 26.9149 9.30336 26.5247 10.4354 25.7174C10.9058 25.3013 11.2841 24.7917 11.5461 24.2209C11.8081 23.6502 11.948 23.0311 11.9569 22.4032H14.1481C14.765 22.4181 15.3779 22.2992 15.9446 22.0549C16.4508 21.8224 16.8906 21.4666 17.2235 21.0199C17.6203 21.4419 18.087 21.792 18.6031 22.0549C19.0736 22.2863 19.5913 22.4056 20.1156 22.4032H31.7535C32.3898 22.4029 33.0218 22.2976 33.6239 22.0919C34.2156 21.891 34.7633 21.5784 35.237 21.1708C35.6041 21.5912 36.064 21.9201 36.5803 22.1318C37.0901 22.3162 37.6284 22.4093 38.1705 22.4068H45.4037C46.0206 22.4217 46.6335 22.3029 47.2002 22.0587C47.7065 21.8262 48.1462 21.4702 48.4792 21.0236C48.8759 21.4455 49.3426 21.7958 49.8587 22.0587C50.3292 22.2901 50.8469 22.4092 51.3713 22.4068H55.2015V13.2899H52.4558V20.1926L52.4662 20.1875ZM33.6771 18.9308C33.4472 19.3126 33.1238 19.6295 32.7375 19.8518C32.3344 20.0818 31.8767 20.1988 31.4127 20.1904H30.7111C30.5825 19.8141 30.4783 19.4299 30.3991 19.0402C30.3292 18.71 30.2923 18.3736 30.289 18.0361C30.2879 17.6878 30.3126 17.3399 30.3629 16.9952C30.4107 16.663 30.4781 16.3339 30.5647 16.0097C30.8397 15.8461 31.1336 15.7167 31.44 15.6246C31.7119 15.5405 31.9946 15.4973 32.2791 15.496C32.5215 15.4872 32.7626 15.5353 32.983 15.6365C33.2035 15.7376 33.3971 15.889 33.5485 16.0785C33.887 16.5251 34.056 17.0775 34.0253 17.637C34.0304 18.0909 33.9099 18.5373 33.6771 18.927V18.9308Z" fill="white"/>
<path d="M47.9929 10.25C48.1354 10.2559 48.2774 10.2311 48.4094 10.1773C48.5414 10.1235 48.6604 10.0418 48.7581 9.93797C48.9423 9.7041 49.0424 9.41516 49.0424 9.11746C49.0424 8.81976 48.9423 8.53064 48.7581 8.29677C48.6582 8.19695 48.5385 8.11919 48.4067 8.06827C48.275 8.01735 48.134 7.99447 47.9929 8.00113C47.7761 8.02481 47.5699 8.10804 47.3974 8.24154C47.2249 8.37504 47.0927 8.55359 47.0153 8.75756C46.938 8.96154 46.9186 9.18289 46.9592 9.39722C46.9998 9.61156 47.0989 9.81056 47.2455 9.97208C47.4494 10.1578 47.7172 10.2574 47.9929 10.25Z" fill="white"/>
<path d="M46.4249 13.2155C46.5897 13.2231 46.7543 13.195 46.9074 13.1334C47.0604 13.0718 47.1984 12.978 47.312 12.8583C47.542 12.5903 47.6601 12.2442 47.6418 11.8915C47.6621 11.5371 47.5475 11.1881 47.321 10.9148C47.2058 10.7959 47.0663 10.703 46.9121 10.6428C46.7578 10.5826 46.5925 10.5565 46.4272 10.5659C46.2606 10.5572 46.0941 10.5836 45.9385 10.6437C45.7829 10.7039 45.6418 10.7963 45.5245 10.9148C45.3104 11.1936 45.1943 11.5351 45.1943 11.8866C45.1943 12.238 45.3104 12.5796 45.5245 12.8583C45.6404 12.9787 45.7807 13.0729 45.9361 13.1345C46.0914 13.1961 46.258 13.2237 46.4249 13.2155Z" fill="white"/>
<path d="M48.3221 11.8913C48.3037 12.244 48.4218 12.5901 48.6519 12.8582C48.768 12.9789 48.9087 13.0733 49.0644 13.135C49.2201 13.1968 49.3872 13.2245 49.5545 13.2161C49.7194 13.2236 49.884 13.1955 50.037 13.1338C50.1901 13.072 50.3281 12.9779 50.4417 12.8582C50.6558 12.5794 50.7718 12.2378 50.7718 11.8864C50.7718 11.5349 50.6558 11.1934 50.4417 10.9146C50.3269 10.797 50.1885 10.7052 50.0356 10.6452C49.8826 10.5851 49.7186 10.5583 49.5545 10.5665C49.3864 10.5557 49.2179 10.5811 49.0605 10.6412C48.9031 10.7013 48.7605 10.7946 48.6423 10.9146C48.4143 11.1871 48.2997 11.5367 48.3221 11.8913Z" fill="white"/>
<path d="M69.8564 13.262C70.0213 13.2696 70.1858 13.2415 70.3389 13.1799C70.492 13.1183 70.63 13.0245 70.7436 12.9049C70.9561 12.6258 71.0719 12.2852 71.0735 11.9345C71.0751 11.5839 70.9624 11.2423 70.7525 10.9613C70.6373 10.8424 70.4978 10.7497 70.3436 10.6895C70.1894 10.6293 70.024 10.603 69.8587 10.6124C69.6905 10.6018 69.522 10.6273 69.3646 10.6875C69.2072 10.7477 69.0645 10.8411 68.9464 10.9613C68.7365 11.2423 68.6239 11.5839 68.6255 11.9345C68.6271 12.2852 68.7428 12.6258 68.9553 12.9049C69.0713 13.0253 69.2118 13.1194 69.3672 13.181C69.5227 13.2426 69.6894 13.2703 69.8564 13.262Z" fill="white"/>
<path d="M80.1518 24.3488C79.9845 24.3403 79.8173 24.3677 79.6616 24.4295C79.5058 24.4912 79.3651 24.5857 79.2491 24.7065C79.035 24.9834 78.9189 25.3236 78.9189 25.6736C78.9189 26.0236 79.035 26.3635 79.2491 26.6405C79.4902 26.8686 79.809 26.9966 80.141 26.9984C80.4729 27.0002 80.7931 26.8758 81.0366 26.6502C81.2698 26.3802 81.3884 26.0297 81.3671 25.6736C81.3891 25.319 81.2743 24.9694 81.0463 24.6969C80.9303 24.579 80.7906 24.487 80.6364 24.4269C80.4822 24.3669 80.317 24.3403 80.1518 24.3488Z" fill="white"/>
<path d="M83.287 24.3491C83.1196 24.3405 82.9523 24.368 82.7964 24.4298C82.6406 24.4915 82.4998 24.5859 82.3836 24.7068C82.1698 24.9838 82.0537 25.3239 82.0537 25.6739C82.0537 26.0238 82.1698 26.3638 82.3836 26.6408C82.4998 26.7616 82.6406 26.8563 82.7964 26.918C82.9523 26.9797 83.1196 27.0072 83.287 26.9987C83.4519 27.0062 83.6165 26.9781 83.7696 26.9164C83.9227 26.8546 84.0607 26.7606 84.1742 26.6408C84.4041 26.3727 84.5221 26.0266 84.5039 25.6739C84.523 25.3226 84.4084 24.977 84.183 24.7068C84.0681 24.5863 83.9287 24.492 83.7741 24.4303C83.6194 24.3685 83.4533 24.3409 83.287 24.3491Z" fill="white"/>
<path d="M92.2022 20.1876C91.7633 20.1988 91.3299 20.0877 90.9505 19.8667C90.5969 19.6537 90.312 19.3434 90.1299 18.9729C89.9315 18.56 89.8339 18.106 89.8453 17.6481C89.8309 17.2087 89.9254 16.7726 90.1204 16.3787C90.302 16.0358 90.5863 15.7585 90.9336 15.5854C91.3346 15.3919 91.7763 15.2975 92.2214 15.3104C92.6017 15.3112 92.981 15.3511 93.3532 15.4295C93.7872 15.5291 94.2097 15.6735 94.6138 15.8605L95.3885 13.7062C94.9401 13.5126 94.4711 13.371 93.9905 13.284C93.4331 13.1645 92.8647 13.103 92.2946 13.1006C91.3629 13.0776 90.4377 13.261 89.5851 13.6374C88.8602 13.9629 88.2477 14.4956 87.8249 15.1685C87.3979 15.8852 87.1832 16.7084 87.2061 17.5423C87.2028 17.9214 87.2648 18.2984 87.3895 18.6565C87.5056 18.9947 87.6807 19.3096 87.9069 19.5865C88.1194 19.8498 88.3912 20.0588 88.7002 20.1964H83.282V13.2885H80.5363V20.1868H75.4898V13.2797H72.7441V21.6817C72.7593 22.2284 72.6585 22.7721 72.4484 23.277C72.2626 23.7004 71.9418 24.0503 71.5361 24.2721C71.0538 24.5155 70.5176 24.6321 69.9778 24.6107H69.4233C69.0861 24.6223 68.7507 24.5568 68.4425 24.4195C68.1343 24.2822 67.8614 24.0766 67.6446 23.8181C67.169 23.2108 66.9295 22.4519 66.9703 21.6817C66.9744 21.003 67.0295 20.3257 67.1351 19.6553C67.2407 18.9581 67.3939 18.269 67.5935 17.5927H65.1642C64.8549 18.2098 64.6226 18.8625 64.4723 19.5362C64.3098 20.2333 64.2266 20.9465 64.2245 21.6624C64.2081 22.5943 64.4139 23.5169 64.8249 24.3535C65.2095 25.1223 65.8164 25.7575 66.5667 26.1771C66.9502 26.3931 67.3624 26.5537 67.7909 26.654C68.2638 26.7667 68.7486 26.8222 69.2348 26.819H70.048C71.4353 26.9121 72.812 26.5217 73.944 25.7144C74.4145 25.2984 74.7929 24.7888 75.055 24.2181C75.3172 23.6474 75.4572 23.0282 75.4662 22.4002H95.5608V20.1859L92.2022 20.1876Z" fill="white"/>
<path d="M1.55944 31.0329C1.61749 31.0355 1.67546 31.0263 1.72985 31.0059C1.78424 30.9854 1.83391 30.954 1.87585 30.9138C1.91692 30.867 1.94821 30.8126 1.96789 30.7535C1.98757 30.6945 1.99524 30.6322 1.99044 30.5702C1.99857 30.445 1.95745 30.3216 1.87585 30.2263C1.83393 30.1861 1.78427 30.1547 1.72987 30.1343C1.67548 30.1138 1.61749 30.1046 1.55944 30.1072C1.44832 30.1042 1.34021 30.1437 1.25707 30.2175C1.21037 30.2629 1.17453 30.3182 1.15226 30.3794C1.12998 30.4406 1.12183 30.5061 1.12843 30.5709C1.12145 30.6357 1.12941 30.7011 1.15171 30.7624C1.17401 30.8236 1.21005 30.8791 1.25707 30.9243C1.34074 30.997 1.44861 31.0358 1.55944 31.0329Z" fill="white"/>
<path d="M2.89336 31.0329C2.95302 31.0365 3.01274 31.0268 3.06822 31.0045C3.1237 30.9823 3.17355 30.948 3.2142 30.9042C3.28559 30.8073 3.32411 30.6901 3.32411 30.5697C3.32411 30.4494 3.28559 30.332 3.2142 30.2351C3.17336 30.1916 3.12345 30.1576 3.068 30.1355C3.01256 30.1134 2.95294 30.1036 2.89336 30.1071C2.8353 30.1045 2.77729 30.1137 2.7229 30.1342C2.6685 30.1547 2.61883 30.186 2.57694 30.2263C2.53583 30.273 2.50452 30.3275 2.48484 30.3865C2.46516 30.4456 2.45751 30.508 2.46235 30.5701C2.45349 30.6953 2.49471 30.8189 2.57694 30.9137C2.61831 30.9548 2.66789 30.9865 2.72242 31.0071C2.77695 31.0276 2.83521 31.0365 2.89336 31.0329Z" fill="white"/>
<path d="M20.3618 35.1942C20.2117 35.069 20.0978 34.906 20.032 34.7219C19.9494 34.4974 19.909 34.2593 19.913 34.0201C19.9052 33.7788 19.9472 33.5386 20.0365 33.3142C20.1102 33.1371 20.24 32.9889 20.4061 32.8928C20.5918 32.7934 20.8003 32.7446 21.0109 32.7509C21.1601 32.7521 21.3087 32.7688 21.4544 32.8011C21.613 32.8357 21.768 32.8852 21.9172 32.9489L22.1235 32.3715C21.9776 32.301 21.8237 32.2487 21.6651 32.2156C21.4633 32.1718 21.2573 32.1502 21.0508 32.1513C20.715 32.1439 20.3827 32.2201 20.0838 32.3732C19.8133 32.5159 19.5914 32.7359 19.4465 33.0052C19.2873 33.3104 19.2084 33.651 19.2173 33.995C19.2162 34.1821 19.2393 34.3684 19.2861 34.5495C19.3284 34.715 19.3931 34.874 19.4783 35.022C19.5555 35.1515 19.6512 35.269 19.7622 35.3709H3.27829V31.7483H2.62254V32.234H2.11391C1.72661 32.2246 1.34236 32.3047 0.990928 32.4677C0.685198 32.6151 0.429994 32.8496 0.257556 33.1419C0.0780326 33.4619 -0.0106702 33.825 0.0010234 34.1918C-0.00924146 34.5268 0.0698581 34.8584 0.230201 35.1527C0.38609 35.4193 0.619462 35.6321 0.899256 35.7628C1.23028 35.9116 1.59068 35.9836 1.95348 35.9734H22.2595V35.3731H20.8889C20.6984 35.3722 20.5134 35.3095 20.3618 35.1942ZM2.62254 35.3635H1.94387C1.60647 35.3846 1.2737 35.2766 1.01311 35.0612C0.899199 34.9463 0.811222 34.8083 0.755112 34.6565C0.699001 34.5048 0.676059 34.3427 0.687823 34.1813C0.67672 33.9985 0.704445 33.8154 0.769173 33.644C0.833901 33.4726 0.934164 33.3169 1.06338 33.187C1.36117 32.9338 1.74612 32.807 2.13609 32.8336H2.6218L2.62254 35.3635Z" fill="white"/>
<path d="M35.5111 36.579C35.453 36.5764 35.3949 36.5855 35.3405 36.6061C35.2861 36.6267 35.2365 36.6582 35.1947 36.6987C35.1535 36.7454 35.1221 36.7999 35.1024 36.859C35.0828 36.918 35.0751 36.9805 35.0801 37.0425C35.0719 37.1677 35.1131 37.2909 35.1947 37.3862C35.236 37.4273 35.2856 37.4592 35.3401 37.4797C35.3947 37.5002 35.4529 37.509 35.5111 37.5053C35.5707 37.5089 35.6305 37.4992 35.6859 37.477C35.7414 37.4547 35.7913 37.4204 35.8319 37.3766C35.9033 37.2797 35.9418 37.1625 35.9418 37.0422C35.9418 36.9218 35.9033 36.8045 35.8319 36.7075C35.7916 36.6633 35.7418 36.6289 35.6862 36.6066C35.6306 36.5844 35.5708 36.5749 35.5111 36.579Z" fill="white"/>
<path d="M49.5416 35.3643H47.5847V34.1076C47.6285 33.5746 47.4701 33.0446 47.1411 32.623C46.9671 32.4567 46.7601 32.3288 46.5336 32.2474C46.307 32.1661 46.066 32.1331 45.8259 32.1507C45.5322 32.1483 45.2419 32.2141 44.9779 32.3429C44.7004 32.4829 44.4554 32.6796 44.2586 32.9203C44.0201 33.209 43.8282 33.5333 43.6901 33.8814V30.1064H43.0344V35.3591H35.8884V32.2238H35.2009V35.3591H24.0376V30.1064H23.3501V35.9603H50.238V30.1064H49.5504V35.3643H49.5416ZM46.9289 35.3643H43.6835V34.7315C43.8365 34.346 44.0316 33.9786 44.2653 33.6359C44.4411 33.374 44.6673 33.1495 44.9306 32.9757C45.1537 32.8324 45.4129 32.7555 45.6781 32.7539C45.8488 32.7402 46.0204 32.7631 46.1817 32.8208C46.3429 32.8786 46.49 32.9699 46.6133 33.0889C46.8442 33.3861 46.9555 33.7589 46.9252 34.1341V35.3629L46.9289 35.3643Z" fill="white"/>
<path d="M52.4576 30.1064H51.77V35.9601H52.4576V30.1064Z" fill="white"/>
<path d="M59.4242 32.2289C59.4838 32.2325 59.5436 32.2228 59.5991 32.2005C59.6545 32.1783 59.7043 32.144 59.745 32.1002C59.8165 32.0033 59.8551 31.8861 59.8551 31.7657C59.8551 31.6453 59.8165 31.5282 59.745 31.4313C59.7042 31.3876 59.6543 31.3533 59.5989 31.3311C59.5434 31.3089 59.4838 31.2992 59.4242 31.3026C59.3661 31.3 59.308 31.3092 59.2536 31.3298C59.1992 31.3504 59.1496 31.3819 59.1078 31.4222C59.0666 31.4689 59.0352 31.5235 59.0155 31.5825C58.9958 31.6416 58.9882 31.704 58.9932 31.7661C58.9886 31.8281 58.9964 31.8905 59.0161 31.9495C59.0357 32.0085 59.0669 32.063 59.1078 32.1099C59.1496 32.1502 59.1993 32.1815 59.2537 32.202C59.3081 32.2224 59.3661 32.2316 59.4242 32.2289Z" fill="white"/>
<path d="M58.0907 32.229C58.1488 32.2316 58.2069 32.2224 58.2613 32.2018C58.3157 32.1812 58.3653 32.1498 58.4071 32.1094C58.4483 32.0626 58.4796 32.0081 58.4993 31.9491C58.519 31.89 58.5266 31.8276 58.5217 31.7655C58.5299 31.6404 58.4888 31.5169 58.4071 31.4217C58.3653 31.3813 58.3156 31.3499 58.2612 31.3293C58.2068 31.3087 58.1488 31.2995 58.0907 31.302C57.9797 31.2996 57.8718 31.3388 57.7883 31.4121C57.7416 31.4575 57.7058 31.5128 57.6835 31.574C57.6613 31.6352 57.6531 31.7007 57.6597 31.7655C57.6527 31.8303 57.6606 31.8959 57.6829 31.9572C57.7052 32.0185 57.7413 32.0738 57.7883 32.1189C57.8724 32.1912 57.9799 32.2303 58.0907 32.229Z" fill="white"/>
<path d="M60.5287 35.3635H57.7645C57.6627 35.3657 57.562 35.3433 57.4709 35.2978C57.3798 35.2523 57.3012 35.1852 57.2419 35.1025C57.1001 34.9021 57.029 34.6602 57.04 34.415C57.0393 34.2327 57.0499 34.0504 57.0718 33.8694C57.0902 33.6853 57.1221 33.4997 57.1546 33.3149H56.5402C56.4553 33.5661 56.3985 33.826 56.3709 34.0898C56.3569 34.2317 56.348 34.3603 56.348 34.4704C56.337 34.6698 56.3658 34.8693 56.4327 35.0574C56.4996 35.2455 56.6033 35.4185 56.7377 35.5662C56.8758 35.7014 57.0403 35.8065 57.2209 35.8752C57.4016 35.9439 57.5944 35.9745 57.7874 35.9652H61.1837V32.2282H60.528L60.5287 35.3635Z" fill="white"/>
<path d="M79.295 32.5131C79.0349 32.3721 78.7428 32.301 78.447 32.3068C78.1873 32.3067 77.9296 32.3533 77.6863 32.4443C77.4502 32.5331 77.2304 32.6603 77.0357 32.8207C76.9426 33.0035 76.8733 33.1976 76.8295 33.398C76.7828 33.6105 76.7598 33.8274 76.7607 34.0449C76.7626 34.2515 76.7856 34.4574 76.8295 34.6593C76.8825 34.9 76.9544 35.1359 77.0446 35.3652H63.2887V30.1111H62.6011V35.9641H78.3139C78.635 35.9706 78.9518 35.8899 79.2306 35.7305C79.5004 35.5726 79.7173 35.3381 79.8539 35.0569C79.9278 34.9041 79.9818 34.7424 80.0143 34.5757C80.0523 34.3887 80.0706 34.1981 80.069 34.0072C80.0751 33.7 80.0074 33.3958 79.8716 33.1201C79.7377 32.8695 79.5384 32.6597 79.295 32.5131ZM79.2306 34.7405C79.1604 34.927 79.0361 35.0881 78.8736 35.2033C78.6999 35.3129 78.4969 35.3671 78.2917 35.3585H77.7462C77.6415 35.119 77.5646 34.8682 77.517 34.6111C77.4761 34.3798 77.4562 34.1452 77.4571 33.9103C77.4571 33.7772 77.4615 33.654 77.4704 33.5406C77.4801 33.4273 77.5062 33.316 77.548 33.2102C77.6773 33.1143 77.8194 33.0373 77.9702 32.9811C78.1239 32.9228 78.2871 32.8933 78.4515 32.8945C78.5748 32.8933 78.6968 32.9206 78.808 32.9739C78.9193 33.0272 79.0168 33.1052 79.0932 33.202C79.2766 33.4243 79.3714 33.7066 79.3593 33.9946C79.3628 34.249 79.3192 34.502 79.2306 34.7405Z" fill="white"/>
<path d="M92.1057 31.4949C92.1653 31.4985 92.225 31.4889 92.2804 31.4668C92.3359 31.4446 92.3859 31.4107 92.4266 31.3671C92.5029 31.2726 92.542 31.1535 92.5367 31.0321C92.5428 30.9107 92.5036 30.7914 92.4266 30.6973C92.3865 30.6528 92.3366 30.618 92.281 30.5957C92.2254 30.5734 92.1655 30.5642 92.1057 30.5686C92.0477 30.5661 91.9897 30.5753 91.9353 30.5957C91.881 30.6162 91.8313 30.6474 91.7893 30.6876C91.7483 30.7344 91.7169 30.789 91.6973 30.848C91.6776 30.9071 91.67 30.9694 91.6747 31.0314C91.6659 31.1567 91.7071 31.2804 91.7893 31.3752C91.8312 31.4156 91.8808 31.4469 91.9352 31.4675C91.9895 31.4881 92.0476 31.4974 92.1057 31.4949Z" fill="white"/>
<path d="M95.6038 30.1064V35.3591H94.1459C94.0518 35.2573 93.9745 35.1414 93.9168 35.0154C93.8382 34.8448 93.7767 34.6667 93.7334 34.4839C93.6736 34.2497 93.6262 34.0126 93.5914 33.7735C93.5562 33.5364 93.4993 33.3029 93.4214 33.0762C93.3649 32.9085 93.2795 32.7519 93.1693 32.6135C93.0667 32.4945 92.9441 32.3944 92.807 32.3178C92.6977 32.2587 92.5805 32.2156 92.4589 32.1898C92.3155 32.1612 92.1696 32.1474 92.0234 32.1485C91.7797 32.147 91.5367 32.1746 91.2997 32.2312C91.061 32.2897 90.8345 32.3899 90.6306 32.527L90.9004 33.0585C91.0828 32.9622 91.2749 32.8853 91.4734 32.8293C91.6496 32.7798 91.8316 32.7537 92.0146 32.7517C92.1407 32.7507 92.2659 32.7724 92.3842 32.816C92.4914 32.8612 92.5858 32.9321 92.6592 33.0223C92.7423 33.1368 92.8071 33.2635 92.8514 33.3979C92.9134 33.578 92.9579 33.7637 92.9844 33.9523C93.0258 34.2 93.0717 34.415 93.1176 34.6035C93.1578 34.765 93.2115 34.9229 93.278 35.0753C93.3258 35.1806 93.389 35.2779 93.4657 35.3643H84.1101C84.034 34.8235 83.8923 34.2939 83.6879 33.7874C83.5091 33.3477 83.2593 32.9405 82.9486 32.5817C82.6544 32.246 82.3018 31.9665 81.9078 31.7567L81.6608 32.3436C81.9835 32.5576 82.2735 32.8171 82.5221 33.114C82.7622 33.4004 82.957 33.7221 83.0994 34.0677C83.1847 34.265 83.2537 34.469 83.3057 34.6775C83.363 34.9043 83.4089 35.1337 83.4432 35.365H80.8809V35.9653H96.2869V30.1124H95.6038V30.1064Z" fill="white"/>
<path d="M119.884 38.3021C119.884 37.7892 119.886 37.2743 119.884 36.7614C119.882 35.9464 119.882 35.1295 119.87 34.3145C119.866 34.123 119.927 34.0748 120.111 34.0766C120.776 34.0872 121.441 34.08 122.123 34.08V41.9233H121.793C121.224 41.9233 120.654 41.9178 120.086 41.9253C120.024 41.9306 119.962 41.9177 119.907 41.8881C119.853 41.8586 119.808 41.8137 119.778 41.759C118.938 40.4934 118.095 39.2308 117.247 37.9714C117.199 37.8944 117.133 37.8301 117.054 37.7837V41.904H114.813V34.0944H115.035C115.633 34.0944 116.232 34.0982 116.831 34.091C116.889 34.0857 116.947 34.0974 116.998 34.1247C117.049 34.152 117.092 34.1937 117.119 34.2446C117.972 35.5281 118.828 36.8098 119.688 38.0896C119.738 38.1646 119.788 38.2378 119.838 38.313C119.853 38.3083 119.869 38.3046 119.884 38.3021Z" fill="white"/>
<path d="M110.707 34.0999H113.084V41.9058H110.707V34.0999Z" fill="white"/>
<path d="M122.068 17.1853C122.068 17.1835 122.066 17.1836 122.066 17.1818V17.1241H121.98L117.232 21.9842C117.274 22.0424 117.292 22.1148 117.282 22.186C117.272 23.0457 117.295 23.9074 117.272 24.7688C117.283 25.1036 117.213 25.4363 117.067 25.738C116.922 26.0397 116.705 26.3015 116.436 26.5009C115.814 26.8995 115.084 27.0944 114.346 27.0584C113.209 27.078 112.071 27.0619 110.932 27.0639C110.854 27.0639 110.773 27.0728 110.685 27.0783C110.682 27.1677 110.675 27.234 110.675 27.3V32.0851C110.675 32.3979 110.675 32.3979 110.997 32.3979C112.83 32.3979 114.666 32.4086 116.5 32.391C117.121 32.3859 117.74 32.3387 118.354 32.2497C119.298 32.1433 120.183 31.7344 120.876 31.0841C121.735 30.2481 122.05 29.184 122.055 28.0282C122.072 24.3067 122.063 21.1017 122.063 17.3802V17.1908C122.066 17.187 122.066 17.1853 122.068 17.1853Z" fill="white"/>
<path d="M121.834 17.1227H121.042C118.504 17.1227 115.966 17.1203 113.427 17.1155C113.375 17.1163 113.323 17.1064 113.275 17.0866C113.227 17.0668 113.183 17.0374 113.147 17.0002C112.392 15.9223 111.648 14.8357 110.902 13.7523C110.769 13.5617 110.702 13.3336 110.709 13.1016C110.719 12.0926 110.712 11.0801 110.712 10.0699C110.714 8.39321 110.718 6.71477 110.714 5.03835C110.714 4.84001 110.772 4.78264 110.97 4.78639C111.831 4.79705 112.693 4.77399 113.553 4.79705C113.888 4.78518 114.22 4.85511 114.522 5.00079C114.824 5.14646 115.086 5.36349 115.285 5.6331C115.683 6.25401 115.878 6.98368 115.843 7.72062C115.862 8.85937 115.846 9.99611 115.848 11.1346C115.848 11.2133 115.857 11.2937 115.863 11.3814C115.952 11.3848 116.018 11.3903 116.084 11.3903H120.87C121.183 11.3903 121.183 11.3903 121.183 11.0686C121.183 9.23473 121.194 7.39889 121.176 5.56506C121.171 4.94467 121.123 4.32533 121.034 3.71134C120.927 2.76736 120.518 1.88307 119.869 1.18936C119.033 0.329672 117.969 0.014863 116.813 0.00967375C113.092 -0.00647062 109.37 0.0024682 105.649 0.0024682H105.409C105.404 0.109713 105.395 0.197348 105.395 0.284989C105.395 4.70355 105.396 9.12153 105.398 13.5389C105.398 13.6571 105.428 13.7734 105.485 13.8768C105.928 14.622 106.382 15.3604 106.831 16.1039C107.029 16.4311 107.222 16.7635 107.44 17.1316H101.428V17.4427C101.43 18.8798 101.435 20.317 101.435 21.7541C101.435 26.5534 101.435 31.3534 101.434 36.154C101.419 36.7665 101.543 37.3743 101.796 37.9324C102.048 38.4906 102.423 38.9848 102.892 39.3786C103.827 40.1435 104.911 40.7049 106.076 41.0267C107.272 41.3844 108.496 41.6415 109.735 41.7953C110.015 41.8345 110.3 41.8579 110.646 41.8954C110.52 41.8025 110.448 41.7489 110.377 41.697C109.436 41.0407 108.603 40.2434 107.906 39.333C107.143 38.3614 106.692 37.1809 106.614 35.9476C106.58 35.1557 106.583 34.362 106.581 33.5686C106.578 29.772 106.575 25.9754 106.574 22.1788C106.574 21.9715 106.637 21.9089 106.842 21.9124C107.643 21.9268 111.215 21.923 113.079 21.9179V21.9268C114.396 21.9285 115.713 21.9285 117.028 21.9268C117.064 21.9217 117.1 21.924 117.135 21.9336C117.17 21.9431 117.202 21.9596 117.23 21.9822L121.978 17.1221L121.834 17.1227Z" fill="white"/>
</svg>
